# xmcd CD database file
#
# Track frame offsets:
#	150
#	10768
#	26819
#	43866
#	61478
#	86982
#	99613
#
# Disc length: 1637 seconds
#
# Revision: 5
# Processed by: cddbd v1.5PL3 Copyright (c) Steve Scherf et al.
# Submitted via: ACXtractor (MTCDDB.DLL V2003.12.21)
#
DISCID=5a066307
DTITLE=Ryan Adams - Love Is Hell (Pt. 2)
DYEAR=2003
DGENRE=Rock
TTITLE0=My Blue Manhattan
TTITLE1=Please Do Not Let Me Go
TTITLE2=City Rain, City Streets
TTITLE3=I See Monsters
TTITLE4=English Girls Approximately
TTITLE5=Thank You Louise
TTITLE6=Hotel Chelsea nights
EXTD=YEAR: 2003 ID3G:  17
EXTT0=
EXTT1=
EXTT2=
EXTT3=
EXTT4=
EXTT5=
EXTT6=
PLAYORDER=
